<?xml version="1.0" encoding="UTF-8"?>
<svg id="Layer_1" data-name="Layer 1" xmlns="http://www.w3.org/2000/svg" version="1.1" viewBox="0 0 2000 542.3">
  <defs>
    <style>
      .cls-1 {
        fill: #231f20;
      }

      .cls-1, .cls-2 {
        stroke-width: 0px;
      }

      .cls-2 {
        fill: #fff;
      }
    </style>
  </defs>
  <g>
    <path class="cls-1" d="M1216.91,360.12v-158.58h-59.24v-21.22h142.52v21.22h-59.48v158.58h-23.79Z"/>
    <path class="cls-1" d="M1325.08,360.12v-179.8h130.01v21.22h-106.21v55.07h99.47v21.1h-99.47v61.2h110.38v21.22h-134.18Z"/>
    <path class="cls-1" d="M1620.42,297.08l23.79,6.01c-4.99,19.54-13.96,34.45-26.92,44.71-12.96,10.26-28.8,15.39-47.53,15.39s-35.14-3.94-47.28-11.84c-12.14-7.89-21.38-19.32-27.72-34.28-6.34-14.96-9.5-31.03-9.5-48.2,0-18.72,3.58-35.06,10.73-49,7.15-13.94,17.33-24.53,30.54-31.77,13.2-7.24,27.74-10.85,43.6-10.85,17.99,0,33.12,4.58,45.38,13.74,12.27,9.16,20.81,22.04,25.63,38.63l-23.43,5.52c-4.17-13.08-10.22-22.61-18.15-28.58-7.93-5.97-17.91-8.95-29.93-8.95-13.82,0-25.37,3.31-34.65,9.93-9.28,6.62-15.8,15.52-19.56,26.68-3.76,11.16-5.64,22.67-5.64,34.53,0,15.29,2.23,28.64,6.68,40.04,4.46,11.41,11.38,19.93,20.79,25.57,9.4,5.64,19.58,8.46,30.54,8.46,13.33,0,24.61-3.84,33.85-11.53,9.24-7.69,15.49-19.09,18.77-34.22Z"/>
    <path class="cls-1" d="M1674.26,360.12v-179.8h23.79v73.83h93.46v-73.83h23.79v179.8h-23.79v-84.75h-93.46v84.75h-23.79Z"/>
  </g>
  <g>
    <path class="cls-2" d="M1211.02,355.91v-158.58h-59.24v-21.22h142.52v21.22h-59.49v158.58h-23.79Z"/>
    <path class="cls-2" d="M1319.19,355.91v-179.8h130.01v21.22h-106.21v55.07h99.47v21.1h-99.47v61.2h110.38v21.22h-134.18Z"/>
    <path class="cls-2" d="M1614.53,292.87l23.79,6.01c-4.99,19.54-13.96,34.45-26.92,44.71-12.96,10.26-28.8,15.39-47.53,15.39s-35.14-3.94-47.28-11.84c-12.14-7.89-21.38-19.32-27.72-34.28-6.34-14.96-9.51-31.03-9.51-48.2,0-18.72,3.58-35.06,10.73-49,7.15-13.94,17.33-24.53,30.54-31.77,13.2-7.24,27.74-10.85,43.6-10.85,17.99,0,33.12,4.58,45.38,13.74,12.27,9.16,20.81,22.04,25.63,38.63l-23.43,5.52c-4.17-13.08-10.22-22.61-18.15-28.58-7.93-5.97-17.91-8.95-29.93-8.95-13.82,0-25.37,3.31-34.65,9.93-9.28,6.62-15.8,15.52-19.56,26.68-3.76,11.16-5.64,22.67-5.64,34.53,0,15.29,2.23,28.64,6.68,40.04,4.46,11.41,11.39,19.93,20.79,25.57,9.4,5.64,19.58,8.46,30.54,8.46,13.33,0,24.61-3.84,33.85-11.53,9.24-7.68,15.49-19.09,18.77-34.22Z"/>
    <path class="cls-2" d="M1668.37,355.91v-179.8h23.79v73.83h93.46v-73.83h23.79v179.8h-23.79v-84.75h-93.46v84.75h-23.79Z"/>
  </g>
  <g>
    <polygon class="cls-1" points="186.5 280.27 186.5 259.67 186.5 200.18 186.5 180.32 162.7 180.32 162.7 360.12 186.5 360.12 186.5 280.27"/>
    <path class="cls-1" d="M289.89,311.18c-6.21-9.57-12.8-17.54-19.75-23.92-3.27-2.94-8.05-5.93-14.35-8.95,17.25-2.37,30.01-7.93,38.27-16.68,8.26-8.75,12.39-19.5,12.39-32.26,0-9.89-2.5-18.93-7.48-27.11-4.99-8.18-11.65-13.88-19.99-17.11-8.34-3.23-20.52-4.84-36.55-4.84h-31.98v19.87h32.96c13.33,0,23.08,2.74,29.25,8.22,6.17,5.48,9.26,12.47,9.26,20.97,0,5.81-1.59,11.18-4.78,16.13-3.19,4.95-7.85,8.55-13.98,10.79-6.13,2.25-14.64,3.37-25.51,3.37h-27.19v20.6h3.64c6.13,0,10.55.29,13.25.86,3.68.9,7.3,2.5,10.85,4.78,3.56,2.29,7.58,6.3,12.08,12.02,4.5,5.72,10.22,13.98,17.17,24.77l23.79,37.41h29.93l-31.28-48.94Z"/>
  </g>
  <path class="cls-1" d="M497.96,222.2c-6.99-14.19-17.15-25.24-30.48-33.18-13.33-7.93-28.29-11.9-44.89-11.9-9.75,0-18.8,1.26-27.17,3.76v22.75c8.28-4.01,17.38-6.03,27.29-6.03,11.85,0,22.55,3,32.07,9.01,9.52,6.01,16.76,14.47,21.71,25.39,4.95,10.92,7.42,23.69,7.42,38.33,0,23.14-5.79,41.01-17.35,53.6-11.57,12.59-26.31,18.89-44.21,18.89s-32.2-6.23-43.85-18.7c-11.65-12.47-17.48-29.54-17.48-51.21,0-20.49,3.49-36.53,10.45-48.14v-31.97c-3.86,2.84-7.51,6.04-10.94,9.65-16.03,16.89-24.04,40.25-24.04,70.09,0,15.78,3.43,30.74,10.3,44.89,6.87,14.15,16.97,25.31,30.29,33.48,13.33,8.18,28.45,12.27,45.38,12.27,15.62,0,30.17-3.7,43.66-11.1,13.49-7.4,23.92-18.29,31.28-32.69,7.36-14.39,11.04-30.7,11.04-48.94s-3.5-34.08-10.49-48.26Z"/>
  <g>
    <path class="cls-1" d="M598.21,340.95c-5.86-.92-11.07-2.66-15.62-5.23-7.07-4-12.06-9.71-14.96-17.11-2.9-7.4-4.35-18.91-4.35-34.53v-103.76h-23.79v103.88c0,19.05,2.29,34.08,6.87,45.07,4.58,11,12.22,19.4,22.94,25.21,7.95,4.31,17.6,7.02,28.93,8.13v-21.66Z"/>
    <path class="cls-1" d="M657.1,180.32v103.76c0,22.57-3.72,37.82-11.16,45.75-5.34,5.69-13.27,9.32-23.78,10.93v21.88c12.11-1.19,22.27-4.33,30.46-9.45,10.67-6.66,18.05-15.31,22.14-25.94,4.09-10.63,6.13-24.98,6.13-43.05v-103.88h-23.79Z"/>
  </g>
  <g>
    <polygon class="cls-1" points="743.32 338.9 743.32 197.45 743.32 180.32 719.53 180.32 719.53 360.12 743.32 360.12 743.32 338.9"/>
    <rect class="cls-1" x="767.79" y="338.9" width="64.08" height="21.22"/>
  </g>
  <g>
    <rect class="cls-1" x="908.82" y="180.32" width="81.88" height="21.22"/>
    <rect class="cls-1" x="908.82" y="256.6" width="75.14" height="21.1"/>
    <rect class="cls-1" x="860.69" y="180.32" width="23.66" height="179.8"/>
    <rect class="cls-1" x="908.82" y="338.9" width="86.05" height="21.22"/>
  </g>
  <g>
    <rect class="cls-1" x="1014.25" y="180.32" width="35.55" height="21.22"/>
    <polygon class="cls-1" points="1074.27 180.32 1074.27 360.12 1097.28 360.12 1097.28 201.53 1156.77 201.53 1156.77 180.32 1074.27 180.32"/>
  </g>
</svg>